<svg xmlns="http://www.w3.org/2000/svg" width="512" height="512" viewBox="0 0 512 512">
<g transform="translate(-19.2 -47.9) scale(1.101)">
<g transform="translate(6 10)"><g opacity="0.3" transform="rotate(-6 256 256)"><path d="M86,176 L176,286 L256,124 L336,286 L426,176 L398,382 L114,382 Z" fill="#000" stroke="#000" stroke-width="42" stroke-linejoin="round"/><path d="M114,364 L398,364 Q414,364 414,380 L414,424 Q414,440 398,440 L114,440 Q98,440 98,424 L98,380 Q98,364 114,364 Z" fill="#000" stroke="#000" stroke-width="42" stroke-linejoin="round"/><path d="M86,144 C100.3598,144 112,155.6402 112,170 C112,184.3598 100.3598,196 86,196 C71.6402,196 60,184.3598 60,170 C60,155.6402 71.6402,144 86,144 Z" fill="#000" stroke="#000" stroke-width="38" stroke-linejoin="round"/><path d="M256,86 C272.569,86 286,99.431 286,116 C286,132.569 272.569,146 256,146 C239.431,146 226,132.569 226,116 C226,99.431 239.431,86 256,86 Z" fill="#000" stroke="#000" stroke-width="38" stroke-linejoin="round"/><path d="M426,144 C440.3598,144 452,155.6402 452,170 C452,184.3598 440.3598,196 426,196 C411.6402,196 400,184.3598 400,170 C400,155.6402 411.6402,144 426,144 Z" fill="#000" stroke="#000" stroke-width="38" stroke-linejoin="round"/></g></g>
<g transform="rotate(-6 256 256)"><path d="M86,176 L176,286 L256,124 L336,286 L426,176 L398,382 L114,382 Z" fill="#fff" stroke="#fff" stroke-width="42" stroke-linejoin="round"/><path d="M114,364 L398,364 Q414,364 414,380 L414,424 Q414,440 398,440 L114,440 Q98,440 98,424 L98,380 Q98,364 114,364 Z" fill="#fff" stroke="#fff" stroke-width="42" stroke-linejoin="round"/><path d="M86,144 C100.3598,144 112,155.6402 112,170 C112,184.3598 100.3598,196 86,196 C71.6402,196 60,184.3598 60,170 C60,155.6402 71.6402,144 86,144 Z" fill="#fff" stroke="#fff" stroke-width="38" stroke-linejoin="round"/><path d="M256,86 C272.569,86 286,99.431 286,116 C286,132.569 272.569,146 256,146 C239.431,146 226,132.569 226,116 C226,99.431 239.431,86 256,86 Z" fill="#fff" stroke="#fff" stroke-width="38" stroke-linejoin="round"/><path d="M426,144 C440.3598,144 452,155.6402 452,170 C452,184.3598 440.3598,196 426,196 C411.6402,196 400,184.3598 400,170 C400,155.6402 411.6402,144 426,144 Z" fill="#fff" stroke="#fff" stroke-width="38" stroke-linejoin="round"/></g>
<g transform="rotate(-6 256 256)">
<path d="M86,176 L176,286 L256,124 L336,286 L426,176 L398,382 L114,382 Z" fill="#ffbe1a" stroke="#1d1230" stroke-width="16" stroke-linejoin="round"/>
<path d="M114,364 L398,364 Q414,364 414,380 L414,424 Q414,440 398,440 L114,440 Q98,440 98,424 L98,380 Q98,364 114,364 Z" fill="#ff9f1c" stroke="#1d1230" stroke-width="16" stroke-linejoin="round"/>
<path d="M86,144 C100.3598,144 112,155.6402 112,170 C112,184.3598 100.3598,196 86,196 C71.6402,196 60,184.3598 60,170 C60,155.6402 71.6402,144 86,144 Z" fill="#ff3b47" stroke="#1d1230" stroke-width="12" stroke-linejoin="round"/>
<path d="M256,86 C272.569,86 286,99.431 286,116 C286,132.569 272.569,146 256,146 C239.431,146 226,132.569 226,116 C226,99.431 239.431,86 256,86 Z" fill="#35d7ff" stroke="#1d1230" stroke-width="12" stroke-linejoin="round"/>
<path d="M426,144 C440.3598,144 452,155.6402 452,170 C452,184.3598 440.3598,196 426,196 C411.6402,196 400,184.3598 400,170 C400,155.6402 411.6402,144 426,144 Z" fill="#ff3b47" stroke="#1d1230" stroke-width="12" stroke-linejoin="round"/>
<path d="M176,385 C185.3891,385 193,392.6109 193,402 C193,411.3891 185.3891,419 176,419 C166.6109,419 159,411.3891 159,402 C159,392.6109 166.6109,385 176,385 Z" fill="#35d7ff" stroke="#1d1230" stroke-width="10" stroke-linejoin="round"/>
<path d="M256,380 L278,402 L256,424 L234,402 Z" fill="#ff3b47" stroke="#1d1230" stroke-width="10" stroke-linejoin="round"/>
<path d="M336,385 C345.3891,385 353,392.6109 353,402 C353,411.3891 345.3891,419 336,419 C326.6109,419 319,411.3891 319,402 C319,392.6109 326.6109,385 336,385 Z" fill="#35d7ff" stroke="#1d1230" stroke-width="10" stroke-linejoin="round"/>
<path d="M146,300 L130,360" stroke="#fff" stroke-width="10" stroke-linecap="round" opacity="0.5"/>
</g>
</g>
</svg>
