<svg xmlns="http://www.w3.org/2000/svg" width="512" height="512" viewBox="0 0 512 512">
<g transform="translate(-17.8 -19.9) scale(1.057)">
<g transform="translate(6 10)"><g opacity="0.3" transform="rotate(8 256 256)"><path d="M256,66 Q289.5,44.6 314.7,75.3 Q353.2,65.3 367.7,102.3 Q407.3,104.7 409.7,144.3 Q446.7,158.8 436.7,197.3 Q467.4,222.5 446,256 Q467.4,289.5 436.7,314.7 Q446.7,353.2 409.7,367.7 Q407.3,407.3 367.7,409.7 Q353.2,446.7 314.7,436.7 Q289.5,467.4 256,446 Q222.5,467.4 197.3,436.7 Q158.8,446.7 144.3,409.7 Q104.7,407.3 102.3,367.7 Q65.3,353.2 75.3,314.7 Q44.6,289.5 66,256 Q44.6,222.5 75.3,197.3 Q65.3,158.8 102.3,144.3 Q104.7,104.7 144.3,102.3 Q158.8,65.3 197.3,75.3 Q222.5,44.6 256,66 Z" fill="#000" stroke="#000" stroke-width="42" stroke-linejoin="round"/><path d="M125.3,202 L125.3,310 L181.5,310 M256,202 C280.5,202 300.3,226.2 300.3,256 C300.3,285.8 280.5,310 256,310 C231.5,310 211.7,285.8 211.7,256 C211.7,226.2 231.5,202 256,202 Z M330.5,202 L330.5,310 L386.7,310" fill="none" stroke-linecap="round" stroke-linejoin="round" stroke="#000" stroke-width="65.76"/><path d="M125.3,202 L125.3,310 L181.5,310 M256,202 C280.5,202 300.3,226.2 300.3,256 C300.3,285.8 280.5,310 256,310 C231.5,310 211.7,285.8 211.7,256 C211.7,226.2 231.5,202 256,202 Z M330.5,202 L330.5,310 L386.7,310" transform="translate(0 9)" fill="none" stroke-linecap="round" stroke-linejoin="round" stroke="#000" stroke-width="65.76"/></g></g>
<g transform="rotate(8 256 256)"><path d="M256,66 Q289.5,44.6 314.7,75.3 Q353.2,65.3 367.7,102.3 Q407.3,104.7 409.7,144.3 Q446.7,158.8 436.7,197.3 Q467.4,222.5 446,256 Q467.4,289.5 436.7,314.7 Q446.7,353.2 409.7,367.7 Q407.3,407.3 367.7,409.7 Q353.2,446.7 314.7,436.7 Q289.5,467.4 256,446 Q222.5,467.4 197.3,436.7 Q158.8,446.7 144.3,409.7 Q104.7,407.3 102.3,367.7 Q65.3,353.2 75.3,314.7 Q44.6,289.5 66,256 Q44.6,222.5 75.3,197.3 Q65.3,158.8 102.3,144.3 Q104.7,104.7 144.3,102.3 Q158.8,65.3 197.3,75.3 Q222.5,44.6 256,66 Z" fill="#fff" stroke="#fff" stroke-width="42" stroke-linejoin="round"/><path d="M125.3,202 L125.3,310 L181.5,310 M256,202 C280.5,202 300.3,226.2 300.3,256 C300.3,285.8 280.5,310 256,310 C231.5,310 211.7,285.8 211.7,256 C211.7,226.2 231.5,202 256,202 Z M330.5,202 L330.5,310 L386.7,310" fill="none" stroke-linecap="round" stroke-linejoin="round" stroke="#fff" stroke-width="65.76"/><path d="M125.3,202 L125.3,310 L181.5,310 M256,202 C280.5,202 300.3,226.2 300.3,256 C300.3,285.8 280.5,310 256,310 C231.5,310 211.7,285.8 211.7,256 C211.7,226.2 231.5,202 256,202 Z M330.5,202 L330.5,310 L386.7,310" transform="translate(0 9)" fill="none" stroke-linecap="round" stroke-linejoin="round" stroke="#fff" stroke-width="65.76"/></g>
<g transform="rotate(8 256 256)">
<path d="M256,66 Q289.5,44.6 314.7,75.3 Q353.2,65.3 367.7,102.3 Q407.3,104.7 409.7,144.3 Q446.7,158.8 436.7,197.3 Q467.4,222.5 446,256 Q467.4,289.5 436.7,314.7 Q446.7,353.2 409.7,367.7 Q407.3,407.3 367.7,409.7 Q353.2,446.7 314.7,436.7 Q289.5,467.4 256,446 Q222.5,467.4 197.3,436.7 Q158.8,446.7 144.3,409.7 Q104.7,407.3 102.3,367.7 Q65.3,353.2 75.3,314.7 Q44.6,289.5 66,256 Q44.6,222.5 75.3,197.3 Q65.3,158.8 102.3,144.3 Q104.7,104.7 144.3,102.3 Q158.8,65.3 197.3,75.3 Q222.5,44.6 256,66 Z" fill="#8b5cff" stroke="#1d1230" stroke-width="16" stroke-linejoin="round"/>
<path d="M256,100 C342.1588,100 412,169.84120000000001 412,256 C412,342.1588 342.1588,412 256,412 C169.84120000000001,412 100,342.1588 100,256 C100,169.84120000000001 169.84120000000001,100 256,100 Z" fill="none" stroke="#b8f3ff" stroke-width="6" stroke-dasharray="3 15" stroke-linecap="round"/>
<path d="M125.3,202 L125.3,310 L181.5,310 M256,202 C280.5,202 300.3,226.2 300.3,256 C300.3,285.8 280.5,310 256,310 C231.5,310 211.7,285.8 211.7,256 C211.7,226.2 231.5,202 256,202 Z M330.5,202 L330.5,310 L386.7,310" transform="translate(0 9)" fill="none" stroke-linecap="round" stroke-linejoin="round" stroke="#1d1230" stroke-width="39.760000000000005"/>
<path d="M125.3,202 L125.3,310 L181.5,310 M256,202 C280.5,202 300.3,226.2 300.3,256 C300.3,285.8 280.5,310 256,310 C231.5,310 211.7,285.8 211.7,256 C211.7,226.2 231.5,202 256,202 Z M330.5,202 L330.5,310 L386.7,310" fill="none" stroke-linecap="round" stroke-linejoin="round" stroke="#1d1230" stroke-width="39.760000000000005"/>
<path d="M125.3,202 L125.3,310 L181.5,310 M256,202 C280.5,202 300.3,226.2 300.3,256 C300.3,285.8 280.5,310 256,310 C231.5,310 211.7,285.8 211.7,256 C211.7,226.2 231.5,202 256,202 Z M330.5,202 L330.5,310 L386.7,310" fill="none" stroke-linecap="round" stroke-linejoin="round" stroke="#ffd23f" stroke-width="23.76"/>
</g>
</g>
</svg>
